<?xml version="1.0" encoding="UTF-8"?>
<!-- Generator: Adobe Illustrator 15.1.0, SVG Export Plug-In . SVG Version: 6.00 Build 0)  -->
<!DOCTYPE svg PUBLIC "-//W3C//DTD SVG 1.1//EN" "http://www.w3.org/Graphics/SVG/1.1/DTD/svg11.dtd">
<svg version="1.1" id="Layer_1" xmlns="http://www.w3.org/2000/svg" xmlns:xlink="http://www.w3.org/1999/xlink" x="0px" y="0px" width="900.044px" height="369px" viewBox="0 0 900.044 369" enable-background="new 0 0 900.044 369" xml:space="preserve">
<path fill-rule="evenodd" clip-rule="evenodd" fill="#FFFFFF" d="M289.044,71c6.51,5.823,8.749,15.918,11,26  c-7.535,1.868-7.312-4.021-14-3c1.554-7.221-4.69-6.644-5-12C282.917,77.54,285.958,74.247,289.044,71z"/>
<path fill-rule="evenodd" clip-rule="evenodd" fill="#FFFFFF" d="M655.044,74c2.784,3.633,0.027,17.653,1,26  C648.826,93.905,654.539,83.238,655.044,74z"/>
<path fill-rule="evenodd" clip-rule="evenodd" fill="#FFFFFF" d="M582.044,102c-3.516,1.736-6.348-1.096-6-6  C578.755,94.02,581.498,98.688,582.044,102z"/>
<path fill-rule="evenodd" clip-rule="evenodd" fill="#FFFFFF" d="M326.044,97c5.287,1.504-0.711,12.841,1,17  c-3.073-0.26-4.497-2.169-7-3C322.458,106.747,321.216,98.838,326.044,97z"/>
<path fill-rule="evenodd" clip-rule="evenodd" fill="#FFFFFF" d="M701.044,105c4.389,5.115-1.561,14.356-6,17  C697.001,116.29,699.538,111.161,701.044,105z"/>
<path fill-rule="evenodd" clip-rule="evenodd" fill="#FFFFFF" d="M746.044,106c4.941,3.282-3.616,7.668-5,11  C737.246,111.829,744.717,109.37,746.044,106z"/>
<path fill-rule="evenodd" clip-rule="evenodd" fill="#FFFFFF" d="M796.044,109c-8.729,14.938-25.278,22.055-37,34  c-1.422-2.781,3.504-6.37,6-9c8.041-8.472,18.343-19.907,29-26C795.206,107.837,795.823,108.221,796.044,109z"/>
<path fill-rule="evenodd" clip-rule="evenodd" d="M831.044,115c1.987,0.013,1.271,2.729,4,2c-2.232,2.768-5.575,4.425-10,5  C825.541,118.164,828.836,117.125,831.044,115z"/>
<path fill-rule="evenodd" clip-rule="evenodd" fill="#FFFFFF" d="M644.044,125c4.017-0.017,2.779,5.22,3,9  C642.923,134.265,642.054,127.72,644.044,125z"/>
<path fill-rule="evenodd" clip-rule="evenodd" fill="#FFFFFF" d="M590.044,127c3.254,2.08,4.093,6.574,7,9  C594.062,137.607,591.045,130.696,590.044,127z"/>
<path fill-rule="evenodd" clip-rule="evenodd" fill="#FFFFFF" d="M352.044,128c4.447,0.577,0.159,7.586,0,10  c-2.054-0.279-1.996-2.671-3-4C349.06,131.016,351.644,130.6,352.044,128z"/>
<path fill-rule="evenodd" clip-rule="evenodd" fill="#FFFFFF" d="M538.044,141c2.655,1.012,5.689,1.644,6,5  C541.332,145.045,537.149,145.562,538.044,141z"/>
<path fill-rule="evenodd" clip-rule="evenodd" fill="#FFFFFF" d="M796.044,141c2.797,3.82-4.991,5.185-3,9  c-6.859-0.054-12.528,9.369-22,10C777.444,151.734,789.17,148.793,796.044,141z"/>
<path fill-rule="evenodd" clip-rule="evenodd" fill="#FFFFFF" d="M803.044,143c-1.912,2.421-4.432,4.235-8,5  C796.956,145.579,799.476,143.765,803.044,143z"/>
<path fill-rule="evenodd" clip-rule="evenodd" fill="#FFFFFF" d="M117.044,146c1.817,1.183,0.786,5.214,2,7c-2,0-4,0-6,0  C113.06,149.349,115.887,148.509,117.044,146z"/>
<path fill-rule="evenodd" clip-rule="evenodd" fill="#FFFFFF" d="M640.044,151c3.052,1.078,5.222,6.8,3,10  C641.981,157.932,636.923,155.099,640.044,151z"/>
<path fill-rule="evenodd" clip-rule="evenodd" fill="#FFFFFF" d="M547.044,165c2.462,2.205,7.666,1.667,8,6  C550.613,170.764,547.903,168.808,547.044,165z"/>
<path fill-rule="evenodd" clip-rule="evenodd" fill="#FFFFFF" d="M388.044,238c-12.048-9.045-4.335-28.66-6-44  c-1.116-10.288-6.615-13.98-11-21c3.649-8.472,17.084-7.661,19,2c0.743,3.748-2.39,9.737-3,15  C385.048,207.204,386.769,227.726,388.044,238z"/>
<path fill-rule="evenodd" clip-rule="evenodd" fill="#FFFFFF" d="M862.044,176c-4.029,4.024-11.437,2.435-18,2  C849,174.831,855.729,174.756,862.044,176z"/>
<path fill-rule="evenodd" clip-rule="evenodd" fill="#FFFFFF" d="M92.044,189c2.176,0.887,3.055,5.584-1,5  C90.725,191.681,91.205,190.161,92.044,189z"/>
<path fill-rule="evenodd" clip-rule="evenodd" fill="#FFFFFF" d="M769.044,192c1.53,3.073-6.53,3.073-5,0  C764.65,191.424,768.787,189.659,769.044,192z"/>
<path fill-rule="evenodd" clip-rule="evenodd" fill="#FFFFFF" d="M659.044,192c1.615-0.282,1.722,0.945,3,1  c-1.275,2.059-1.595,5.072-5,5C657.62,195.909,659.523,195.146,659.044,192z"/>
<path fill-rule="evenodd" clip-rule="evenodd" fill="#FFFFFF" d="M77.044,200c-1.314,5.02-4.126,8.54-6,13  c0.235,6.098,5.47,7.197,7,12c-1.651,8.851-1.715,21.539,2,28c-13.368,13.632-25.984,28.017-38,43c-7.028-4.106-3.754-10.481-4-18  c-0.958-29.265,6.279-62.763,18-83C63.276,191.322,71.642,196.113,77.044,200z"/>
<path fill-rule="evenodd" clip-rule="evenodd" fill="#FFFFFF" d="M111.044,198c-7.923,0.393-12.947,4.445-20,8  c5.067,2.968-3.171,1.28-3,5c-2.356,0.022-2.944-1.723-6-1C90.413,202.845,101.314,190.188,111.044,198z"/>
<path fill-rule="evenodd" clip-rule="evenodd" fill="#FFFFFF" d="M692.044,199c1.996,3.369-2.969,8.334-8,8  C685.136,202.759,690.508,202.797,692.044,199z"/>
<path fill-rule="evenodd" clip-rule="evenodd" fill="#FFFFFF" d="M850.044,207c-3.549,8.278-19.244,8.761-28,6  C826.087,206.284,843.509,207.923,850.044,207z"/>
<path fill-rule="evenodd" clip-rule="evenodd" fill="#FFFFFF" d="M311.044,220c-1.494,1.587-5.701,1.462-5-2  C307.538,216.413,311.745,216.538,311.044,220z"/>
<path fill-rule="evenodd" clip-rule="evenodd" fill="#FFFFFF" d="M725.044,226c-1.735,3.265-7.605,2.395-11,4  C714.822,225.778,721.029,226.985,725.044,226z"/>
<path fill-rule="evenodd" clip-rule="evenodd" fill="#FFFFFF" d="M620.044,231c3.954-2.309,7.732-1.625,9,3  C633.265,249.4,607.573,238.279,620.044,231z"/>
<path fill-rule="evenodd" clip-rule="evenodd" fill="#FFFFFF" d="M679.044,232c2.229,2.353,3.081,8.908,0,11  C668.813,245.309,668.582,229.513,679.044,232z"/>
<path fill-rule="evenodd" clip-rule="evenodd" fill="#FFFFFF" d="M257.044,240c-1.823,2.681-6.472,1.857-6-3  C254.068,235.571,256.815,236.169,257.044,240z"/>
<path fill-rule="evenodd" clip-rule="evenodd" fill="#FFFFFF" d="M710.044,252C715.128,246.077,718.032,257.875,710.044,252  L710.044,252z"/>
<path fill-rule="evenodd" clip-rule="evenodd" fill="#FFFFFF" d="M839.044,255c-2.071,0.595-6.569-1.236-7,1  C814.485,254.817,836.918,251.521,839.044,255z"/>
<path fill-rule="evenodd" clip-rule="evenodd" fill="#FFFFFF" d="M827.044,272c-4.256,1.112-11.931,2.613-13,0  C813.619,270.963,823.487,271.052,827.044,272z"/>
<path fill-rule="evenodd" clip-rule="evenodd" fill="#FFFFFF" d="M657.044,292c3.244,0.756,4.344,3.656,4,8c-5.333,0-10.667,0-16,0  c4.58-1.949,0.33-6.828,7-7c-0.279,2.279,0.241,3.759,2,4C657.168,297.458,657.241,294.863,657.044,292z"/>
<path fill-rule="evenodd" clip-rule="evenodd" fill="#FFFFFF" d="M674.044,294c5.287-0.287,5.289,4.711,9,6  c-2.038,2.295-8.305,0.362-12,1C670.662,297.284,675.097,298.386,674.044,294z"/>
<path fill-rule="evenodd" clip-rule="evenodd" fill="#FFFFFF" d="M643.044,301c-3.333,0-6.667,0-10,0  C633.427,296.937,642.529,296.924,643.044,301z"/>
<path fill-rule="evenodd" clip-rule="evenodd" fill="#FFFFFF" d="M252.044,299c2.647,2.604-2.126,7.378-5,5  C246.46,300.083,251.157,301.446,252.044,299z"/>
<path fill-rule="evenodd" clip-rule="evenodd" fill="#FFFFFF" d="M1.044,0c299.663,0,599.342,0,899,0c0,123.001,0,245.999,0,369  c-299.993,0-600.009,0-900,0c0-121.999,0-244.001,0-366C-0.042,1.581-0.121,0.168,1.044,0z M888.044,264  c-17.816-4.839-33.84-3.61-47-10c7.409-1.829,14.338-1.038,24-2c-0.725-2.275-0.892-5.108-2-7c-8.304-0.889-27.275,1.812-33-7  c8.627-1.271,17.815,1.168,22-6c7.724-0.943,17.404,0.07,21-5c-9.672-5.564-30.935,4.32-39-3c8.153-7.581,23.262-3.364,36-5  c-2.076-8.076,10.004-1.995,10-8c-4.569-5.79-13.496-0.902-21-1c1.427-4.427-3.384-2.616-3-6c2.279,0.279,3.759-0.241,4-2  c-16.713-2.066-38.939,5.97-58,4c13.014-2.084,27.887-8.055,41-4c1.602-3.936-4.318-0.348-4-3c3.861-2.139,11.249-0.751,12-6  c-4.375-9.348-21.712,1.966-29-1c2.489-4.256,23.02-7.789,27-4c3.777-1.223,5.646-4.354,11-4c1.446-9.606,14.852-8.963,18-14  c-8.61,0.116-13.754,1.275-21-1c-3.797,1.417-9.247,3.965-15,2c-2.87,3.463-8.625,4.042-15,4c-3.104,1.366-6.558,4.779-8,0  c7.438-5.896,18.567-8.099,26-14c-9.631,1.376-19.289,8.034-27,8c6.18-1.154,8.935-5.732,15-7c2.351-14.652,26.358-12.971,30-23  c-10.059,2.947-18.344,7.335-29,7c-2.257,5.87-11.739,10.512-17,5c6.692-5.382,20.012-9.22,17-21c-9.299,2.776-20.182,9.051-28,10  c5.29-11.257,10.678-11.434,18-17c-9.64-0.872-13.945,11.98-23,15c5.827-4.39,3.515-10.842,9-15c-8.414,0.596-12.732,10.587-20,9  c6.242-17.425,23.379-23.955,39-32c-5.847-12.413-17.328,9.787-26,7c0.743-7.59,10.566-6.1,13-12c-1.793-3.751-5.559,0.687-8-2  c1.603-8.406,15.35-9.972,14-18c-4.433,1.9-6.447,6.219-12,7c0-4.667-0.861-8.472-6-8c3.135,17.214-9.926,24.733-21,33  c-2.487-0.109-3.096-1.874-5,0c-5.465,8.207-14.227,18.433-21,22c4.799-10.539,16.679-19.316,21-27c-5.084,1.916-4.911,9.088-12,9  c6.046-7.955,13.503-14.497,19-23c4.642-2.186,13.517-10.265,10-14c-5.238-1.882-7.607,7.709-13,9  c-9.335,10.999-16.318,24.348-29,32c4.088-10.731,19.812-23.055,13-35c4.262-9.071,9.892-16.775,11-29c-4.732-2.809-5.631,2.602-9,4  c1.374,3.164,0.218,3.342,0,7c-8.024,11.643-14.339,24.995-24,35c-0.699-8.378,4.223-19.592-3-23c6.041-6.965,12.033-19.293,11-30  c-3.355,1.311-4.841,4.492-8,6c-3.399,15.019-14.018,22.619-22,34c-1.749,2.494-0.412,8.06-6,7c-3.032-17.43,8.1-31.965,10-45  c0.412-2.828,2.031-7.835-2-10c-7.627,8.039-7.972,23.361-14,33c-13.352-1.617-12.206,19.744-22,25c-7.219-14.836,7.022-37.354,0-55  c-11.66,2.168-3.155,21.518-14,26c3.168,8.371,0.475,24.867-3,35c-1.183-5.484,2.46-15.793-2-18c-0.833,10.869,2.866,33.932-3,43  c-3.97-25.25,8.038-60.471-6-80c-11.061,3.606-9.482,19.852-15,29c-2.57-7.62-1.047-22.889-5-26c-1.003,0.003-1.19-0.81-2-1  c-5.954,10.316,2.008,30.51-2,40c8.392,6.455,1.34,23.064-1,31c-6.294-3.698-3.936-22.516,0-28c-3.963-5.486-3.54-20.304-12-18  c-0.349,5.078,8.479,19.06,2,27c-9.888-17.778-16.293-39.041-28-55c-7.982,14.793,8.171,35.463,9,48c-2.418-0.672-6.292-5.626-8-1  c10.369,7.565,17.536,26.508,17,36c-6.571-5.288-5.811-18.133-11-27c-2.823-1.172-4.247-0.199-7,1c-4.171-6.162-7.446-13.221-12-19  c2.495,9.171,8.74,14.593,11,24c-2.696-1.971-4.783-4.55-6-8c-19.709-8.67-21-30.786-42-39c4.268,17.231,21.93,27.806,25,44  c0.868,4.579-1.802,9.055,0,13c0.803,1.757,3.989,2.806,5,4c3.439,4.065,5.631,9.007,9,14c-16.015-10.652-22.74-30.593-42-38  c0.807,5.877,8.046,10.598,8,14c-14.456-0.565-14.534-24.981-29-19c-1.079-3.948-7.02-8.277-12-5c7.852,10.817,24.323,18.34,29,29  c-4.885-3.128-11.404-9.912-17-9c11.138,9.195,26.926,13.741,33,28c-3.078-0.745-1.922,2.745-5,2c-6.681-5.381-19.085-14.996-25-12  c-2.2,3.1,5.018,0,6,2c-2.266,2.484,11.159,6.014,12,12c-3.188-0.854-3.796,0.871-5,2c-2.182-3.652-4.071-1.737-10-2  c-6.795-5.339-17.191-11.607-23-9c11.582,7.421,28.561,14.77,35,24c-14.378-4.824-28.738-13.016-48-17  c9.14,16.194,32.272,18.395,43,33c-3.213-0.88-1.37,3.296-4,3c-15.381-6.336-27.959-13.526-41-20c-4.14,11.201-16.235-4.855-21,3  c9.56,4.458,20.045,8.068,24,13c0.241-1.759,1.721-2.279,4-2c-3.377,3.198,0.479,5.871,4,3c-0.347,4.263,7.118,8.699,10,13  c-1.647,1.686-2.173,4.494-4,6c-4.756-2.577-11.989-2.677-18-4c9.051,12.282,33.83,8.837,47,17c-23.317-4.207-45.62-4.801-69-9  c6.696,7.971,22.307,7.026,32,12c-3.201,0.133-4.399,2.268-4,6c8.212,2.796,16.249,4.78,26,8c-5.922,0.895-13.936-1.361-17,0  c7.016,3.317,19.183,1.484,26,5c-18.191,2.437-36.593-6.423-52-7c1.382,4.049-2.171,3.163-2,6c12.844,1.865,26.031,3.943,36,6  c-3.744,5.083-7.999,4.19-13,4c2.21,1.79,4.307,3.693,5,7c7.865-0.198,12.844,2.489,18,5c-13.607,1.743-26.715,0.559-43,1  c13.606,7.394,31.496,10.504,46,17c-3.104,4.254-12.43-0.297-17-1c-0.078,8.255-12.702,3.965-20,5c0.319,2.319-0.16,3.839-1,5  c12.34-0.975,22.716,0.954,32,0c-0.309,2.338-1.958,4.132,0,6c12.535,2.833,24.372-5.175,30,0c-3.521,2.479-7.971,4.029-10,8  c5.152,0.711,8.572-0.723,10,2c-1.794,1.873-6.138,1.195-7,4c6.819,3.657,9.863-6.665,15-5c0.851,3.775-3.321,4.694-1,7  c6.44-0.893,9.411-5.256,17-5c-0.857,3.19,1.574,3.093,2,5c-2.059,1.275-5.072,1.595-5,5c8.575-0.714,14.229-11.299,22-4  c3.406-6.89,10.037,1.333,18-1c-1.283,1.313-1.283,3.687,0,5c3.166,0.108,7.873-3.384,9-2c-1.427,1.334-1.427,5.666,0,7  c28.446-0.683,64.148-0.221,91,4c-36.164-2.477-85.967,0.127-125-1c-2.909-0.084-8.775-3.651-11,1c65.643,3.693,140.018,3.979,206,4  c-7.449-5.503-20.54-5.441-32-6c-22.784-1.11-44.558-1.764-65-4c2.465-3.978,0.451-10.747-1-14c2.622,1.378,4.329,3.671,4,8  c5.023-0.023,6.696,3.304,13,2c0.726-3.059-1.726-2.941-1-6c2.77,3.744,8.91,1.629,10-2c1.925,4.075,3.074,8.926,8,10  c4.028-1.639,1.491-9.842,6-11c3.474,3.859,9.241,5.425,13,9c5.627-0.04,4.221-7.113,9-8c-0.013,4.317,1.838,5.605-1,8  c4.896-0.647,4.698-0.175,10,0c2.176-1.819-2.176-6.181,0-8c5.823-3.345,9.319,1.451,14,2c1.709,0.2,1.797-1.7,4-2  c23.052-3.133,41.55,7.56,65,6c-13.996-9.004-39.187-6.813-54-15c17.604,0.224,35.956,7.656,53,8c3.105,0.062,6.49-1.856,10-2  c6.325-0.258,15.526,4.443,20-2c-7.698-6.302-25.811-2.189-31-11c2.15-5.533,10.955-1.436,16-1c9.121-4.831,19.825-2.489,34-2  c0.521-0.955,4.486-3.318,2-4C886.886,268.857,886.886,264.386,888.044,264z M247.044,55c-24.801-12.67-31.071,17.658-42,31  c-9.58-8.397-21.643-18.596-37-18c-13.983,13.742-4.424,42.289-27,47c-5.539,1.156-11.837-0.332-18-1c-10.046,3.984-4.07,14.75-7,22  c-2.762,6.833-9.436,8.67-14,15c-2.667,0-5.333,0-8,0c-8.262,6.246-3.789,15.993-4,25c-7.779,2.221-5.634,14.365-11,19  c-6.703-2.992-11.969-11.722-21-10c-12.488,2.381-19.789,30.182-23,43c-4.046,16.147-7.313,39.027-7,51  c0.09,3.447,1.885,15.883,3,19c6.002,16.788,23.29,5.232,32-1c11.881-8.502,21.88-18.038,36-23c9.637,13.709,21.357,52.708,38,56  c10.856,2.147,11.776-27.354,13-42c13.488,9.188,31.461,7.329,46,13c3.179,1.24,7.472,5.279,12,8c4.626,2.779,10.43,4.494,14,7  c12.301,8.635,12.036,23.319,23,33c11.654,10.29,29.992,13.588,48,5c-3.477-9.856-11.813-14.854-16-24  c13.82-1.847,23.421-7.912,31-16c-9.303-10.364-17.98-21.353-35-24c31.12-9.547,59.188-22.146,78-44c-0.933,6.734-2.989,12.344-5,18  c-12.945,3.673-34.191,22.044-26,40c0.627,1.375,4.609,2.605,5,5c6.151,1.124,13.541-1.756,16-1c-1.331,7.65,0.528,14.915,1,20  c19.695-3.118,29.025-12.329,37-26c3.287-5.634,1.532-17.979-1-25c-2.505-6.947-12.007-14.976-2-22c9.722,0.231,11.197,13.076,20,11  c0.221-0.779,0.837-1.162,2-1c2.245-7.755,0.398-19.602,1-29c1.255-2.745,6.296-1.704,6-6c-5.59-19.51-8.603-33.387-7-57  c-4.066-4.267-7.27-9.397-13-12c-2.124-2.027-3.386,1.709-7,1c-1.921-0.377-19.613-12.508-20-14c0.063,0.243,2.666-4.714,3-7  c3.158-21.594-8.941-27.956-21-17c-0.266-14.151,3.193-41.248-17-35c-4.598,3.736-5.265,11.402-12,13  c-7.123-14.857-4.806-35.814-22-42c-11.913,5.42-15.737,18.93-28,24C255.165,75.546,252.935,63.442,247.044,55z M825.044,122  c4.425-0.575,7.768-2.232,10-5c-2.729,0.729-2.013-1.987-4-2C828.836,117.125,825.541,118.164,825.044,122z"/>
<g opacity="0.7">
	<path opacity="0.7" fill-rule="evenodd" clip-rule="evenodd" fill="#00003F" d="M357.044,241c3.234,4.317,2.449,6.956,1,13   c-4.584,1.963-14.466,3.242-20,1c0-1.333,0-2.667,0-4c3.394-1.606,9.4-0.6,12-3C347.777,242.615,350.912,240.506,357.044,241z"/>
	<path opacity="0.7" fill-rule="evenodd" clip-rule="evenodd" fill="#00003F" d="M389.044,259c-1.539,5.461-11.664,2.336-17,4   c0-2.667,0-5.333,0-8C378.916,252.205,386.041,253.231,389.044,259z"/>
	<path opacity="0.7" fill-rule="evenodd" clip-rule="evenodd" fill="#00003F" d="M328.044,267c-10.306,12.694-26.136,19.864-42,27   c-4.146,1.146-3.896-2.104-7-2c-9.905,2.311-24.22,10.852-34,4c8.358-8.965,23.146-7.971,35-12c13.091-4.45,25.647-9.732,36-17   C321.6,269.302,323.65,264.737,328.044,267z"/>
	<path opacity="0.7" fill-rule="evenodd" clip-rule="evenodd" fill="#00003F" d="M137.044,277c3.125-0.458,3.197,2.137,3,5   c9.885-0.781,17.709-3.624,29-3c0.777,0.89,1.075,2.258,1,4c4.311-0.125,7.693-2.372,9,2c-6.061,7.938-18.081,9.92-32,10   c-1.283-1.313-1.283-3.687,0-5c-4.259,0.408-8.871,0.462-12,2C133.191,288.444,137.41,282.394,137.044,277z"/>
	<path opacity="0.7" fill-rule="evenodd" clip-rule="evenodd" fill="#00003F" d="M114.044,283c0.396,2.396-4.555-0.555-3,3   c2.095,2.331,6.901,3.281,12,5c-0.883,7.287-10.839,6.384-17,7c-18.937,1.894-41.359,3.539-60,6c-2.61-4.405,7.238-3.76,6-10   c18.559-5.774,38.848-9.818,58-15C112.392,279.319,112.282,282.095,114.044,283z"/>
	<path opacity="0.7" fill-rule="evenodd" clip-rule="evenodd" fill="#00003F" d="M239.044,289c-0.156,4.177-4.913,3.754-8,5   c-1.407-1.926-2.643-4.023-3-7C230.949,285.12,239.103,283.031,239.044,289z"/>
	<path opacity="0.7" fill-rule="evenodd" clip-rule="evenodd" fill="#00003F" d="M859.044,306c-49.414-3.994-100.06-4.423-152-1   c-50.922,3.356-102.565,4.959-151,11c68.004,10.369,148.493,9.111,215,22c-32.068,2.223-92.36-8.233-120,3   c3.351-9.315,18.029-7.305,30-8c-40.821-8.87-96.751-4.028-137-15c9.819-9.051,28.139-7.231,45-9   c47.246-4.955,101.543-7.541,151-10c-75.623-9.475-168.782-9.948-246-4c78.416-12.061,168.237-7.077,250-1   c33.261,2.473,65.966,0.202,96,3C847.034,297.651,855.811,297.636,859.044,306z"/>
	<path opacity="0.7" fill-rule="evenodd" clip-rule="evenodd" fill="#00003F" d="M212.044,300c-12.166,4.586-24.9,6.229-37,10   c-11.594,3.614-22.257,12.13-35,10c-0.067-9.132,13.336-11.957,22-16C179.721,295.751,193.913,289.524,212.044,300z"/>
</g>
<path fill-rule="evenodd" clip-rule="evenodd" fill="#FFFFFF" d="M582.044,106c4.036-0.037,0.878,7.122,4,8  C584.416,115.562,581.639,109.789,582.044,106z"/>
<path fill-rule="evenodd" clip-rule="evenodd" fill="#FFFFFF" d="M744.044,134c-0.311,6.368-8.902,13.089-13,19  C732.909,148.188,738.695,138.66,744.044,134z"/>
<path fill-rule="evenodd" clip-rule="evenodd" fill="#FFFFFF" d="M762.044,147c2.107,4.141-5.468,7.174-8,10  C752.372,153.295,759.648,149.962,762.044,147z"/>
<path fill-rule="evenodd" clip-rule="evenodd" fill="#FFFFFF" d="M604.044,166c-0.15,2.483,0.517,4.15,2,5  C605.448,172.914,597.091,166.066,604.044,166z"/>
<path fill-rule="evenodd" clip-rule="evenodd" d="M318.044,190c-21.112,4.109,3.252,39.324,10,16c3.58,11.589-2.021,22.638-9,27  c-35.633,7.98-27.755-63.153,1-43C319.601,191.454,319.166,189.898,318.044,190z M306.044,218c-0.701,3.462,3.506,3.587,5,2  C311.745,216.538,307.538,216.413,306.044,218z"/>
<path fill-rule="evenodd" clip-rule="evenodd" fill="#FFFFFF" d="M652.044,193c2.056,1.8-2.672,5.271-2,9  c0.189,0.81,1.003,0.997,1,2c7.677-1.594,11.783,0.272,18-6c-3.171,4.387-1.207,8.062-5,11c6.164,1.932,9.494-7.002,15-9  c-3.128,5.538-8.948,8.386-12,14c9.274,3.149,16.235-4.439,22-1c-0.697,2.636-4.553,2.114-5,5c-0.154,2.487,1.571,3.096,2,5  c6.257-3.104,9.073,1.414,14,0c1.805,4.138-9.895,8.967-3,12c3.216-4.651,8.385-5.835,14-2c-3.106,4.894-11.789,4.211-15,9  c1.799,1.234,8.857-1.309,11,2c-0.389,5.364-4.354,4.383-1,9c-3.537,0.88-5.152-2.568-6,1c1.836,2.164,5.896,2.104,10,2  c-0.366,8.765-11.319,3.151-16,2c-0.934,0.732-1.515,1.818-2,3c2.375,1.625,6.058,1.942,9,3c-1.487,5.487,3.612,4.388,4,8  c-10.467-1.896-16.667,0.27-25-6c-2.052,2.197-3.284,1.24-5,5c-2.091-0.576-2.854-2.479-6-2c-1.388,5.388,3.809,4.191,3,9  c-0.629,1.704-3.021,1.646-4,3c-2.503-3.164-5.143-6.19-11-6c-1.666-1.334-0.334-5.666-2-7c-3.766,0.466-3.742,4.845-5,10  c-3.82,0.487-3.13-3.537-5-5c-3.767-0.433-4.554,2.112-6,4c-3.896-2.125-11.239-6.974-12,1c-3.896-1.008-0.154-3.442-1-7  c-6.459-8.403-12.537,4.912-15,10c-0.897-3.233-3.722-8.301-2-11c0.716-2.716-4.716,0.716-4-2c-3.965,3.035-6.074,7.926-14,7  c4.098-3.385,4.353-5.421,8-10c-5.03-2.357-0.813-3.869-1-9c-5.38-0.38-4.833,5.167-10,5c-0.46-3.207-4.54-2.793-5-6  c4.643-1.024,8.347-2.986,9-8c-3.073-3.261-10.604-2.063-13-6c2.209-3.124,12.241,1.574,13-3c0.169-2.169-3.547-0.453-5-1  c3.208-4.88-2.767-3.867-3-8c1.334,1.427,5.666,1.427,7,0c0.537-3.537-0.848-5.152-3-6c2.623-1.905,6.219,3.743,11,3  c-1.997-6.003-10.122-5.878-13-11c6.727,1.257,12.777,3.959,20,2c0.127-1.794-1.225-2.109-1-4c3.804-0.562,6.578-2.75,10-1  c0.375-4.375-3.192-4.808-6-6c0-2.667,0-5.333,0-8c3.135-0.468,2.819,2.515,4,4c1.69-1.977,0.703-6.631,6-5  c1.063,4.413-1.978,7.729,0,10c6.345,0.679,6.323-5.011,6-11c2.443-0.89,4.336-2.331,8-2c0.261,3.261-1.188,4.812-4,5  c0.869,2.908,1.497,1.125,4,1c0.271,4.146-1.313,3.896,0,7c6.91,0.91,6.361-5.639,9-9C647.269,198.225,649.604,195.561,652.044,193z   M621.044,258c20.594,0.229,18.577-44.529-8-32C603.539,235.605,606.461,257.838,621.044,258z M671.044,260  c15.19,0.317,22.083-36.352,0-34C652.084,228.02,655.749,259.681,671.044,260z"/>
<path fill-rule="evenodd" clip-rule="evenodd" d="M613.044,226c26.577-12.529,28.594,32.229,8,32  C606.461,257.838,603.539,235.605,613.044,226z M629.044,234c-1.268-4.625-5.046-5.309-9-3  C607.573,238.279,633.265,249.4,629.044,234z"/>
<path fill-rule="evenodd" clip-rule="evenodd" d="M671.044,226c22.083-2.352,15.19,34.317,0,34  C655.749,259.681,652.084,228.02,671.044,226z M679.044,243c3.081-2.092,2.229-8.647,0-11  C668.582,229.513,668.813,245.309,679.044,243z"/>
<path fill-rule="evenodd" clip-rule="evenodd" d="M888.044,266c2.486,0.682-1.479,3.045-2,4c-14.175-0.489-24.879-2.831-34,2  c-5.045-0.436-13.85-4.533-16,1c5.189,8.811,23.302,4.698,31,11c-4.474,6.443-13.675,1.742-20,2c-3.51,0.144-6.895,2.062-10,2  c-17.044-0.344-35.396-7.776-53-8c14.813,8.187,40.004,5.996,54,15c-23.45,1.56-41.948-9.133-65-6c-2.203,0.3-2.291,2.2-4,2  c-4.681-0.549-8.177-5.345-14-2c-2.176,1.819,2.176,6.181,0,8c-5.302-0.175-5.104-0.647-10,0c2.838-2.395,0.987-3.683,1-8  c-4.779,0.887-3.373,7.96-9,8c-3.759-3.575-9.526-5.141-13-9c-4.509,1.158-1.972,9.361-6,11c-4.926-1.074-6.075-5.925-8-10  c-1.09,3.629-7.23,5.744-10,2c-0.726,3.059,1.726,2.941,1,6c-6.304,1.304-7.977-2.023-13-2c0.329-4.329-1.378-6.622-4-8  c1.451,3.253,3.465,10.022,1,14c20.442,2.236,42.216,2.89,65,4c11.46,0.559,24.551,0.497,32,6c-65.982-0.021-140.357-0.307-206-4  c2.225-4.651,8.091-1.084,11-1c39.033,1.127,88.836-1.477,125,1c-26.852-4.221-62.554-4.683-91-4c-1.427-1.334-1.427-5.666,0-7  c-1.127-1.384-5.834,2.108-9,2c-1.283-1.313-1.283-3.687,0-5c-7.963,2.333-14.594-5.89-18,1c-7.771-7.299-13.425,3.286-22,4  c-0.072-3.405,2.941-3.725,5-5c-0.426-1.907-2.857-1.81-2-5c-7.589-0.256-10.56,4.107-17,5c-2.321-2.306,1.851-3.225,1-7  c-5.137-1.665-8.181,8.657-15,5c0.862-2.805,5.206-2.127,7-4c-1.428-2.723-4.848-1.289-10-2c2.029-3.971,6.479-5.521,10-8  c-5.628-5.175-17.465,2.833-30,0c-1.958-1.868-0.309-3.662,0-6c-9.284,0.954-19.66-0.975-32,0c0.84-1.161,1.319-2.681,1-5  c7.298-1.035,19.922,3.255,20-5c4.57,0.703,13.896,5.254,17,1c-14.504-6.496-32.394-9.606-46-17c16.285-0.441,29.393,0.743,43-1  c-5.156-2.511-10.135-5.198-18-5c-0.693-3.307-2.79-5.21-5-7c5.001,0.19,9.256,1.083,13-4c-9.969-2.057-23.156-4.135-36-6  c-0.171-2.837,3.382-1.951,2-6c15.407,0.577,33.809,9.437,52,7c-6.817-3.516-18.984-1.683-26-5c3.064-1.361,11.078,0.895,17,0  c-9.751-3.22-17.788-5.204-26-8c-0.399-3.732,0.799-5.867,4-6c-9.693-4.974-25.304-4.029-32-12c23.38,4.199,45.683,4.793,69,9  c-13.17-8.163-37.949-4.718-47-17c6.011,1.323,13.244,1.423,18,4c1.827-1.506,2.353-4.314,4-6c-2.882-4.301-10.347-8.737-10-13  c-3.521,2.871-7.377,0.198-4-3c-2.279-0.279-3.759,0.241-4,2c-3.955-4.932-14.44-8.542-24-13c4.765-7.855,16.86,8.201,21-3  c13.041,6.474,25.619,13.664,41,20c2.63,0.296,0.787-3.88,4-3c-10.728-14.605-33.86-16.806-43-33c19.262,3.984,33.622,12.176,48,17  c-6.439-9.23-23.418-16.579-35-24c5.809-2.607,16.205,3.661,23,9c5.929,0.263,7.818-1.652,10,2c1.204-1.129,1.812-2.854,5-2  c-0.841-5.986-14.266-9.516-12-12c-0.982-2-8.2,1.1-6-2c5.915-2.996,18.319,6.619,25,12c3.078,0.745,1.922-2.745,5-2  c-6.074-14.259-21.862-18.805-33-28c5.596-0.912,12.115,5.872,17,9c-4.677-10.66-21.148-18.183-29-29c4.98-3.277,10.921,1.052,12,5  c14.466-5.981,14.544,18.435,29,19c0.046-3.402-7.193-8.123-8-14c19.26,7.407,25.985,27.348,42,38c-3.369-4.993-5.561-9.935-9-14  c-1.011-1.194-4.197-2.243-5-4c-1.802-3.945,0.868-8.421,0-13c-3.07-16.194-20.732-26.769-25-44c21,8.214,22.291,30.33,42,39  c1.217,3.45,3.304,6.029,6,8c-2.26-9.407-8.505-14.829-11-24c4.554,5.779,7.829,12.838,12,19c2.753-1.199,4.177-2.172,7-1  c5.189,8.867,4.429,21.712,11,27c0.536-9.492-6.631-28.435-17-36c1.708-4.626,5.582,0.328,8,1c-0.829-12.537-16.982-33.207-9-48  c11.707,15.959,18.112,37.222,28,55c6.479-7.94-2.349-21.922-2-27c8.46-2.304,8.037,12.514,12,18c-3.936,5.484-6.294,24.302,0,28  c2.34-7.936,9.392-24.545,1-31c4.008-9.49-3.954-29.684,2-40c0.81,0.19,0.997,1.003,2,1c3.953,3.111,2.43,18.38,5,26  c5.518-9.148,3.939-25.394,15-29c14.038,19.529,2.03,54.75,6,80c5.866-9.068,2.167-32.131,3-43c4.46,2.207,0.817,12.516,2,18  c3.475-10.133,6.168-26.629,3-35c10.845-4.482,2.34-23.832,14-26c7.022,17.646-7.219,40.164,0,55c9.794-5.256,8.648-26.617,22-25  c6.028-9.639,6.373-24.961,14-33c4.031,2.165,2.412,7.172,2,10c-1.9,13.035-13.032,27.57-10,45c5.588,1.06,4.251-4.506,6-7  c7.982-11.381,18.601-18.981,22-34c3.159-1.508,4.645-4.689,8-6c1.033,10.707-4.959,23.035-11,30c7.223,3.408,2.301,14.622,3,23  c9.661-10.005,15.976-23.357,24-35c0.218-3.658,1.374-3.836,0-7c3.369-1.398,4.268-6.809,9-4c-1.108,12.225-6.738,19.929-11,29  c6.812,11.945-8.912,24.269-13,35c12.682-7.652,19.665-21.001,29-32c5.393-1.291,7.762-10.882,13-9c3.517,3.735-5.358,11.814-10,14  c-5.497,8.503-12.954,15.045-19,23c7.089,0.088,6.916-7.084,12-9c-4.321,7.684-16.201,16.461-21,27c6.773-3.567,15.535-13.793,21-22  c1.904-1.874,2.513-0.109,5,0c11.074-8.267,24.135-15.786,21-33c5.139-0.472,6,3.333,6,8c5.553-0.781,7.567-5.1,12-7  c1.35,8.028-12.397,9.594-14,18c2.441,2.687,6.207-1.751,8,2c-2.434,5.9-12.257,4.41-13,12c8.672,2.787,20.153-19.413,26-7  c-15.621,8.045-32.758,14.575-39,32c7.268,1.587,11.586-8.404,20-9c-5.485,4.158-3.173,10.61-9,15c9.055-3.02,13.36-15.872,23-15  c-7.322,5.566-12.71,5.743-18,17c7.818-0.949,18.701-7.224,28-10c3.012,11.78-10.308,15.618-17,21c5.261,5.512,14.743,0.87,17-5  c10.656,0.335,18.941-4.053,29-7c-3.642,10.029-27.649,8.348-30,23c-6.065,1.268-8.82,5.846-15,7c7.711,0.034,17.369-6.624,27-8  c-7.433,5.901-18.562,8.104-26,14c1.442,4.779,4.896,1.366,8,0c6.375,0.042,12.13-0.537,15-4c5.753,1.965,11.203-0.583,15-2  c7.246,2.275,12.39,1.116,21,1c-3.148,5.037-16.554,4.394-18,14c-5.354-0.354-7.223,2.777-11,4c-3.98-3.789-24.511-0.256-27,4  c7.288,2.966,24.625-8.348,29,1c-0.751,5.249-8.139,3.861-12,6c-0.318,2.652,5.602-0.936,4,3c-13.113-4.055-27.986,1.916-41,4  c19.061,1.97,41.287-6.066,58-4c-0.241,1.759-1.721,2.279-4,2c-0.384,3.384,4.427,1.573,3,6c7.504,0.098,16.431-4.79,21,1  c0.004,6.005-12.076-0.076-10,8c-12.738,1.636-27.847-2.581-36,5c8.065,7.32,29.328-2.564,39,3c-3.596,5.07-13.276,4.057-21,5  c-4.185,7.168-13.373,4.729-22,6c5.725,8.812,24.696,6.111,33,7c1.108,1.892,1.275,4.725,2,7c-9.662,0.962-16.591,0.171-24,2  c13.16,6.39,29.184,5.161,47,10C886.886,264.386,886.886,268.857,888.044,266z M656.044,100c-0.973-8.347,1.784-22.367-1-26  C654.539,83.238,648.826,93.905,656.044,100z M576.044,96c-0.348,4.904,2.484,7.736,6,6C581.498,98.688,578.755,94.02,576.044,96z   M695.044,122c4.439-2.644,10.389-11.885,6-17C699.538,111.161,697.001,116.29,695.044,122z M586.044,114  c-3.122-0.878,0.036-8.037-4-8C581.639,109.789,584.416,115.562,586.044,114z M741.044,117c1.384-3.332,9.941-7.718,5-11  C744.717,109.37,737.246,111.829,741.044,117z M794.044,108c-10.657,6.093-20.959,17.528-29,26c-2.496,2.63-7.422,6.219-6,9  c11.722-11.945,28.271-19.062,37-34C795.823,108.221,795.206,107.837,794.044,108z M647.044,134c-0.221-3.78,1.017-9.017-3-9  C642.054,127.72,642.923,134.265,647.044,134z M597.044,136c-2.907-2.426-3.746-6.92-7-9  C591.045,130.696,594.062,137.607,597.044,136z M731.044,153c4.098-5.911,12.689-12.632,13-19  C738.695,138.66,732.909,148.188,731.044,153z M544.044,146c-0.311-3.356-3.345-3.988-6-5  C537.149,145.562,541.332,145.045,544.044,146z M771.044,160c9.472-0.631,15.141-10.054,22-10c-1.991-3.815,5.797-5.18,3-9  C789.17,148.793,777.444,151.734,771.044,160z M795.044,148c3.568-0.765,6.088-2.579,8-5  C799.476,143.765,796.956,145.579,795.044,148z M754.044,157c2.532-2.826,10.107-5.859,8-10  C759.648,149.962,752.372,153.295,754.044,157z M643.044,161c2.222-3.2,0.052-8.922-3-10  C636.923,155.099,641.981,157.932,643.044,161z M555.044,171c-0.334-4.333-5.538-3.795-8-6  C547.903,168.808,550.613,170.764,555.044,171z M606.044,171c-1.483-0.85-2.15-2.517-2-5  C597.091,166.066,605.448,172.914,606.044,171z M844.044,178c6.563,0.435,13.971,2.024,18-2  C855.729,174.756,849,174.831,844.044,178z M764.044,192c-1.53,3.073,6.53,3.073,5,0C768.787,189.659,764.65,191.424,764.044,192z   M657.044,198c3.405,0.072,3.725-2.941,5-5c-1.278-0.055-1.385-1.282-3-1C659.523,195.146,657.62,195.909,657.044,198z M642.044,198  c-2.639,3.361-2.09,9.91-9,9c-1.313-3.104,0.271-2.854,0-7c-2.503,0.125-3.131,1.908-4-1c2.812-0.188,4.261-1.739,4-5  c-3.664-0.331-5.557,1.11-8,2c0.323,5.989,0.345,11.679-6,11c-1.978-2.271,1.063-5.587,0-10c-5.297-1.631-4.31,3.023-6,5  c-1.181-1.485-0.865-4.468-4-4c0,2.667,0,5.333,0,8c2.808,1.192,6.375,1.625,6,6c-3.422-1.75-6.196,0.438-10,1  c-0.225,1.891,1.127,2.206,1,4c-7.223,1.959-13.273-0.743-20-2c2.878,5.122,11.003,4.997,13,11c-4.781,0.743-8.377-4.905-11-3  c2.152,0.848,3.537,2.463,3,6c-1.334,1.427-5.666,1.427-7,0c0.233,4.133,6.208,3.12,3,8c1.453,0.547,5.169-1.169,5,1  c-0.759,4.574-10.791-0.124-13,3c2.396,3.937,9.927,2.739,13,6c-0.653,5.014-4.357,6.976-9,8c0.46,3.207,4.54,2.793,5,6  c5.167,0.167,4.62-5.38,10-5c0.187,5.131-4.03,6.643,1,9c-3.647,4.579-3.902,6.615-8,10c7.926,0.926,10.035-3.965,14-7  c-0.716,2.716,4.716-0.716,4,2c-1.722,2.699,1.103,7.767,2,11c2.463-5.088,8.541-18.403,15-10c0.846,3.558-2.896,5.992,1,7  c0.761-7.974,8.104-3.125,12-1c1.446-1.888,2.233-4.433,6-4c1.87,1.463,1.18,5.487,5,5c1.258-5.155,1.234-9.534,5-10  c1.666,1.334,0.334,5.666,2,7c5.857-0.19,8.497,2.836,11,6c0.979-1.354,3.371-1.296,4-3c0.809-4.809-4.388-3.612-3-9  c3.146-0.479,3.909,1.424,6,2c1.716-3.76,2.948-2.803,5-5c8.333,6.27,14.533,4.104,25,6c-0.388-3.612-5.487-2.513-4-8  c-2.942-1.058-6.625-1.375-9-3c0.485-1.182,1.066-2.268,2-3c4.681,1.151,15.634,6.765,16-2c-4.104,0.104-8.164,0.164-10-2  c0.848-3.568,2.463-0.12,6-1c-3.354-4.617,0.611-3.636,1-9c-2.143-3.309-9.201-0.766-11-2c3.211-4.789,11.894-4.106,15-9  c-5.615-3.835-10.784-2.651-14,2c-6.895-3.033,4.805-7.862,3-12c-4.927,1.414-7.743-3.104-14,0c-0.429-1.904-2.154-2.513-2-5  c0.447-2.886,4.303-2.364,5-5c-5.765-3.439-12.726,4.149-22,1c3.052-5.614,8.872-8.462,12-14c-5.506,1.998-8.836,10.932-15,9  c3.793-2.938,1.829-6.613,5-11c-6.217,6.272-10.323,4.406-18,6c0.003-1.003-0.811-1.19-1-2c-0.672-3.729,4.056-7.2,2-9  C649.604,195.561,647.269,198.225,642.044,198z M684.044,207c5.031,0.334,9.996-4.631,8-8  C690.508,202.797,685.136,202.759,684.044,207z M822.044,213c8.756,2.761,24.451,2.278,28-6  C843.509,207.923,826.087,206.284,822.044,213z M714.044,230c3.395-1.605,9.265-0.735,11-4  C721.029,226.985,714.822,225.778,714.044,230z M710.044,252C718.032,257.875,715.128,246.077,710.044,252L710.044,252z   M832.044,256c0.431-2.236,4.929-0.405,7-1C836.918,251.521,814.485,254.817,832.044,256z M814.044,272  c1.069,2.613,8.744,1.112,13,0C823.487,271.052,813.619,270.963,814.044,272z M654.044,297c-1.759-0.241-2.279-1.721-2-4  c-6.67,0.172-2.42,5.051-7,7c5.333,0,10.667,0,16,0c0.344-4.344-0.756-7.244-4-8C657.241,294.863,657.168,297.458,654.044,297z   M671.044,301c3.695-0.638,9.962,1.295,12-1c-3.711-1.289-3.713-6.287-9-6C675.097,298.386,670.662,297.284,671.044,301z   M633.044,301c3.333,0,6.667,0,10,0C642.529,296.924,633.427,296.937,633.044,301z"/>
<path fill-rule="evenodd" clip-rule="evenodd" d="M273.044,224c5.563,11.896-0.734,27.455-9,32c-29.517,5.174-30.603-39.11-14-49  c10.071-1.071,15.466,2.533,19,8c-2.674,0.727-5.609-3.926-10-3C238.249,216.386,269.236,253.189,273.044,224z M251.044,237  c-0.472,4.857,4.177,5.681,6,3C256.815,236.169,254.068,235.571,251.044,237z"/>
<path fill-rule="evenodd" clip-rule="evenodd" d="M261.044,84c12.263-5.07,16.087-18.58,28-24c17.194,6.186,14.877,27.143,22,42  c6.735-1.598,7.402-9.264,12-13c20.193-6.248,16.734,20.849,17,35c12.059-10.956,24.158-4.594,21,17c-0.334,2.286-2.937,7.243-3,7  c0.387,1.492,18.079,13.623,20,14c3.614,0.709,4.876-3.027,7-1c5.73,2.603,8.934,7.733,13,12c-1.603,23.613,1.41,37.49,7,57  c0.296,4.296-4.745,3.255-6,6c-0.602,9.398,1.245,21.245-1,29c-1.163-0.162-1.779,0.221-2,1c-8.803,2.076-10.278-10.769-20-11  c-10.007,7.024-0.505,15.053,2,22c2.532,7.021,4.287,19.366,1,25c-7.975,13.671-17.305,22.882-37,26c-0.472-5.085-2.331-12.35-1-20  c-2.459-0.756-9.849,2.124-16,1c-0.391-2.395-4.373-3.625-5-5c-8.191-17.956,13.055-36.327,26-40c2.011-5.656,4.067-11.266,5-18  c-18.812,21.854-46.88,34.453-78,44c17.02,2.647,25.697,13.636,35,24c-7.579,8.088-17.18,14.153-31,16  c4.187,9.146,12.523,14.144,16,24c-18.008,8.588-36.346,5.29-48-5c-10.964-9.681-10.699-24.365-23-33c-3.57-2.506-9.374-4.221-14-7  c-4.528-2.721-8.821-6.76-12-8c-14.539-5.671-32.512-3.812-46-13c-1.224,14.646-2.144,44.147-13,42  c-16.643-3.292-28.363-42.291-38-56c-14.12,4.962-24.119,14.498-36,23c-8.71,6.232-25.998,17.788-32,1  c-1.115-3.117-2.91-15.553-3-19c-0.313-11.973,2.954-34.853,7-51c3.211-12.818,10.512-40.619,23-43c9.031-1.722,14.297,7.008,21,10  c5.366-4.635,3.221-16.779,11-19c0.211-9.007-4.262-18.754,4-25c2.667,0,5.333,0,8,0c4.564-6.33,11.238-8.167,14-15  c2.93-7.25-3.046-18.016,7-22c6.163,0.668,12.461,2.156,18,1c22.576-4.711,13.017-33.258,27-47c15.357-0.596,27.42,9.603,37,18  c10.929-13.342,17.199-43.67,42-31C252.935,63.442,255.165,75.546,261.044,84z M223.044,82c-0.307,3.974,6.99,0.343,5,6  c-5.008,3.999-16.852,5.345-22,6c-7.502-7.498-16.322-13.678-28-17c-8.637,5.376-4.678,18.443-8,30c3.506,2.16,9.124,2.21,10,7  c-6.738,4.596-11.69,10.977-18,16c-10.758-4.38-24.171-10.975-37-10c-3.313,12.897,7.81,19.339,8,32c5.271,0.73,11.115-3.272,14,1  c-3.648,6.826,1.458,11.189-6,15c-0.755-3.578-2.313-6.353-6-7c-13.703,2.296-26.646-6.587-37-1c4.854,10.15,16.282,22.382,30,27  c2.557,2.675-0.603,5.273,0,9c-1.413,1.512-4.857,3.158-7,1c15.321,11.03,35.784,22.191,43,38c-22.269-4.109-31.784-30.233-62-27  c-0.221,0.779-0.837,1.163-2,1c-3.93,5.035-5.481,12.548-4,21c3.149,17.968,15.84,41.814,24,62c4.163,10.297,5.658,20.142,13,25  c1.236-13.572-3.018-30.353-4-45c-0.978-14.584-1.476-39.777,11-38c-0.209,8.194,7.758,16.01,7,28c10.038,3.629,13.583,13.751,27,14  c2.1-4.233,2.812-9.855,9-10c1.175,12.811,20.947,32.045,34,40c9.802,5.975,22.285,9.021,25,16c2.864,7.362-0.749,13.827,4,19  c7.803,8.501,21.57,10.022,34,8c-6.066-8.601-11.323-18.011-17-27c6.373-8.294,26.745-2.588,34-10c-4.31-13.854-30.541-19.192-41-7  c-1.234,4.433-2.299,9.034-6,11c-5.429-4.534-14.518-11.446-22-20c-8.567-9.795-23.157-24.114-15-31c1.142,5.191,6.468,6.198,6,13  c50.136-1.111,93.952-20.715,126-46c1.514-10.567,11.312-32.396,21-19c-3.35,0.65-6.386,1.614-8,4c0.521,18.613,6.754,42.194-5,53  c-16.211,1.456-24.555,10.778-26,27c9.927-1.305,16.399-12.489,26-8c-0.973,10.693-4.206,19.127-5,30  c12.413,1.07,23.97-12.906,26-26c1.549-9.99-3.147-16.165-9-23c3.111-13.171,10.341-28.219,10-44c-0.411-19.028-6.767-36.275-10-50  c-11.568-17.765-26.172-32.495-40-48c-12.195-8.423-23.833-15.167-37-23c-13.84-8.233-26.872-11.685-41-20  c0.243-3.09,4.977-1.689,4-6c-3.128-6.538-4.451-14.882-9-20C227.536,58.408,229.438,72.643,223.044,82z M281.044,82  c0.31,5.356,6.554,4.779,5,12c6.688-1.021,6.465,4.868,14,3c-2.251-10.082-4.49-20.177-11-26  C285.958,74.247,282.917,77.54,281.044,82z M320.044,111c2.503,0.831,3.927,2.74,7,3c-1.711-4.159,4.287-15.496-1-17  C321.216,98.838,322.458,106.747,320.044,111z M349.044,134c1.004,1.329,0.946,3.721,3,4c0.159-2.414,4.447-9.423,0-10  C351.644,130.6,349.06,131.016,349.044,134z M113.044,153c2,0,4,0,6,0c-1.214-1.786-0.183-5.817-2-7  C115.887,148.509,113.06,149.349,113.044,153z M387.044,190c0.61-5.263,3.743-11.252,3-15c-1.916-9.661-15.351-10.472-19-2  c4.385,7.02,9.884,10.712,11,21c1.665,15.34-6.048,34.955,6,44C386.769,227.726,385.048,207.204,387.044,190z M91.044,194  c4.055,0.584,3.176-4.113,1-5C91.205,190.161,90.725,191.681,91.044,194z M56.044,195c-11.721,20.237-18.958,53.735-18,83  c0.246,7.519-3.028,13.894,4,18c12.016-14.983,24.632-29.368,38-43c-3.715-6.461-3.651-19.149-2-28c-1.53-4.803-6.765-5.902-7-12  c1.874-4.46,4.686-7.98,6-13C71.642,196.113,63.276,191.322,56.044,195z M82.044,210c3.056-0.723,3.644,1.022,6,1  c-0.171-3.72,8.067-2.032,3-5c7.053-3.555,12.077-7.607,20-8C101.314,190.188,90.413,202.845,82.044,210z M247.044,304  c2.874,2.378,7.647-2.396,5-5C251.157,301.446,246.46,300.083,247.044,304z"/>
<path fill-rule="evenodd" clip-rule="evenodd" fill="#FFFFFF" d="M242.044,59c4.549,5.118,5.872,13.462,9,20  c0.977,4.311-3.757,2.91-4,6c14.128,8.315,27.16,11.767,41,20c13.167,7.833,24.805,14.577,37,23c13.828,15.505,28.432,30.235,40,48  c3.233,13.725,9.589,30.972,10,50c0.341,15.781-6.889,30.829-10,44c5.853,6.835,10.549,13.01,9,23c-2.03,13.094-13.587,27.07-26,26  c0.794-10.873,4.027-19.307,5-30c-9.601-4.489-16.073,6.695-26,8c1.445-16.222,9.789-25.544,26-27c11.754-10.806,5.521-34.387,5-53  c1.614-2.386,4.65-3.35,8-4c-9.688-13.396-19.486,8.433-21,19c-32.048,25.285-75.864,44.889-126,46c0.468-6.802-4.858-7.809-6-13  c-8.157,6.886,6.433,21.205,15,31c7.482,8.554,16.571,15.466,22,20c3.701-1.966,4.766-6.567,6-11c10.459-12.192,36.69-6.854,41,7  c-7.255,7.412-27.627,1.706-34,10c5.677,8.989,10.934,18.399,17,27c-12.43,2.022-26.197,0.501-34-8c-4.749-5.173-1.136-11.638-4-19  c-2.715-6.979-15.198-10.025-25-16c-13.053-7.955-32.825-27.189-34-40c-6.188,0.145-6.9,5.767-9,10  c-13.417-0.249-16.962-10.371-27-14c0.758-11.99-7.209-19.806-7-28c-12.476-1.777-11.978,23.416-11,38  c0.982,14.647,5.236,31.428,4,45c-7.342-4.858-8.837-14.703-13-25c-8.16-20.186-20.851-44.032-24-62c-1.481-8.452,0.07-15.965,4-21  c1.163,0.163,1.779-0.221,2-1c30.216-3.233,39.731,22.891,62,27c-7.216-15.809-27.679-26.97-43-38c2.143,2.158,5.587,0.512,7-1  c-0.603-3.727,2.557-6.325,0-9c-13.718-4.618-25.146-16.85-30-27c10.354-5.587,23.297,3.296,37,1c3.687,0.647,5.245,3.422,6,7  c7.458-3.811,2.352-8.174,6-15c-2.885-4.272-8.729-0.27-14-1c-0.19-12.661-11.313-19.103-8-32c12.829-0.975,26.242,5.62,37,10  c6.31-5.023,11.262-11.404,18-16c-0.876-4.79-6.494-4.84-10-7c3.322-11.557-0.637-24.624,8-30c11.678,3.322,20.498,9.502,28,17  c5.148-0.655,16.992-2.001,22-6c1.99-5.657-5.307-2.026-5-6C229.438,72.643,227.536,58.408,242.044,59z M320.044,190  c-28.755-20.153-36.633,50.98-1,43c6.979-4.362,12.58-15.411,9-27c-6.748,23.324-31.112-11.891-10-16  C319.166,189.898,319.601,191.454,320.044,190z M259.044,212c4.391-0.926,7.326,3.727,10,3c-3.534-5.467-8.929-9.071-19-8  c-16.603,9.89-15.517,54.174,14,49c8.266-4.545,14.563-20.104,9-32C269.236,253.189,238.249,216.386,259.044,212z"/>
</svg>