<?xml version="1.0" encoding="UTF-8" standalone="no"?>
<!-- Created with Inkscape (http://www.inkscape.org/) -->

<svg
   xmlns:dc="http://purl.org/dc/elements/1.1/"
   xmlns:cc="http://creativecommons.org/ns#"
   xmlns:rdf="http://www.w3.org/1999/02/22-rdf-syntax-ns#"
   xmlns:svg="http://www.w3.org/2000/svg"
   xmlns="http://www.w3.org/2000/svg"
   xmlns:sodipodi="http://sodipodi.sourceforge.net/DTD/sodipodi-0.dtd"
   xmlns:inkscape="http://www.inkscape.org/namespaces/inkscape"
   width="85.797134mm"
   height="24.747536mm"
   viewBox="0 0 85.797134 24.747536"
   version="1.1"
   id="svg8"
   inkscape:version="0.92.4 5da689c313, 2019-01-14"
   sodipodi:docname="rust analyzer.svg">
  <defs
     id="defs2" />
  <style>
    #text3715 {
      fill: #000000;
      stroke: #ffffff;
      stroke-width: 0.5;
      paint-order: stroke;
    }
    @media (prefers-color-scheme: dark) {
      #text3715 {
        fill: #ffffff;
        stroke: none;
      }
    }
  </style>
  <sodipodi:namedview
     id="base"
     pagecolor="#ffffff"
     bordercolor="#666666"
     borderopacity="1.0"
     inkscape:pageopacity="0.0"
     inkscape:pageshadow="2"
     inkscape:zoom="1.979899"
     inkscape:cx="64.938033"
     inkscape:cy="-10.231391"
     inkscape:document-units="mm"
     inkscape:current-layer="layer1"
     showgrid="false"
     inkscape:window-width="1920"
     inkscape:window-height="1006"
     inkscape:window-x="0"
     inkscape:window-y="0"
     inkscape:window-maximized="1" />
  <metadata
     id="metadata5">
    <rdf:RDF>
      <cc:Work
         rdf:about="">
        <dc:format>image/svg+xml</dc:format>
        <dc:type
           rdf:resource="http://purl.org/dc/dcmitype/StillImage" />
        <dc:title />
      </cc:Work>
    </rdf:RDF>
  </metadata>
  <g
     inkscape:label="Ebene 1"
     inkscape:groupmode="layer"
     id="layer1"
     transform="translate(-29.534624,-59.398722)">
    <g
       aria-label="rust."
       style="font-style:normal;font-weight:normal;font-size:10.58333302px;line-height:1.25;font-family:sans-serif;letter-spacing:0px;word-spacing:0px"
       id="text3715">
      <path
         d="m 35.95077,62.913236 c -0.588719,-0.01704 -1.180779,0.251078 -1.524352,0.735632 -0.163943,0.198364 -0.296317,0.499384 -0.394954,0.683311 -0.101099,-0.416482 -0.202198,-0.832963 -0.303298,-1.249444 -0.671965,0 -1.343931,0 -2.015897,0 0,0.370348 0,0.740695 0,1.111043 0.246841,0 0.493682,0 0.740523,0 0,1.128958 0,2.257916 0,3.386873 -0.246841,0 -0.493682,0 -0.740523,0 0,0.373965 0,0.747931 0,1.121896 1.174777,0 2.349555,0 3.524332,0 0,-0.373965 0,-0.747931 0,-1.121896 -0.37052,0 -0.74104,0 -1.11156,0 0,-0.536229 0,-1.072458 0,-1.608687 0.190283,-0.586609 0.512347,-1.195617 1.085749,-1.482555 0.177393,-0.100673 0.369604,-0.139934 0.305898,0.108135 0,0.278134 0,0.556268 0,0.834401 0.349332,0 0.698665,0 1.047998,0 0.104041,-0.78307 0.208084,-1.56614 0.312125,-2.34921 -0.293304,-0.117432 -0.610556,-0.17161 -0.926041,-0.169499 z"
         style="font-style:normal;font-variant:normal;font-weight:bold;font-stretch:normal;font-family:'Fira Code';-inkscape-font-specification:'Fira Code Bold';"
         id="path817" />
      <path
         d="m 39.681433,63.082627 v 3.847042 q 0,0.407458 0.148167,0.560917 0.153458,0.153458 0.423333,0.153458 0.259292,0 0.518583,-0.164042 0.259292,-0.164041 0.433917,-0.4445 V 63.082627 H 42.8776 v 5.61975 h -1.4605 l -0.07408,-0.656166 q -0.28575,0.41275 -0.751416,0.624416 -0.465667,0.211667 -0.973667,0.211667 -0.814917,0 -1.211792,-0.470958 -0.396875,-0.47625 -0.396875,-1.275292 v -4.053417 z"
         style="font-style:normal;font-variant:normal;font-weight:bold;font-stretch:normal;font-family:'Fira Code';-inkscape-font-specification:'Fira Code Bold';"
         id="path819" />
      <path
         d="m 46.6135,67.686377 q 0.418042,0 0.672042,-0.132291 0.259291,-0.132292 0.259291,-0.396875 0,-0.179917 -0.100541,-0.301625 -0.100542,-0.121709 -0.386292,-0.232834 -0.28575,-0.111125 -0.846667,-0.264583 -0.513291,-0.137583 -0.910166,-0.34925 -0.391584,-0.211667 -0.613834,-0.545042 -0.216958,-0.333375 -0.216958,-0.830791 0,-0.502709 0.280458,-0.894292 0.280459,-0.391583 0.8255,-0.613833 0.545042,-0.227542 1.3335,-0.227542 0.751417,0 1.307042,0.195792 0.560917,0.1905 0.968375,0.486833 l -0.66675,0.98425 q -0.34925,-0.216958 -0.751417,-0.343958 -0.402166,-0.132292 -0.809625,-0.132292 -0.407458,0 -0.608541,0.111125 -0.195792,0.105833 -0.195792,0.322792 0,0.142875 0.100542,0.248708 0.105833,0.100542 0.391583,0.211667 0.28575,0.105833 0.836083,0.264583 0.545042,0.153458 0.947209,0.354542 0.407458,0.201083 0.629708,0.53975 0.22225,0.333375 0.22225,0.883708 0,0.613833 -0.365125,1.031875 -0.365125,0.41275 -0.968375,0.619125 -0.60325,0.206375 -1.322917,0.206375 -0.814916,0 -1.439333,-0.232833 -0.624417,-0.232834 -1.063625,-0.613834 L 44.9625,67.093711 q 0.328083,0.254 0.740833,0.423333 0.418042,0.169333 0.910167,0.169333 z"
         style="font-style:normal;font-variant:normal;font-weight:bold;font-stretch:normal;font-family:'Fira Code';-inkscape-font-specification:'Fira Code Bold';"
         id="path821" />
      <path
         d="m 55.768067,68.374294 q -0.328083,0.211667 -0.79375,0.359833 -0.465666,0.148167 -1.047749,0.148167 -1.100667,0 -1.635125,-0.560917 -0.534459,-0.566208 -0.534459,-1.534583 v -2.550583 h -1.180041 v -1.153584 h 1.180041 v -1.217083 l 1.672167,-0.201083 v 1.418166 h 1.80975 l -0.164042,1.153584 h -1.645708 v 2.550583 q 0,0.418042 0.1905,0.597958 0.1905,0.179917 0.608541,0.179917 0.296334,0 0.53975,-0.06879 0.248709,-0.07408 0.4445,-0.185208 z"
         style="font-style:normal;font-variant:normal;font-weight:bold;font-stretch:normal;font-family:'Fira Code';-inkscape-font-specification:'Fira Code Bold';"
         id="path823" />
      <circle
         cx="59.493385"
         cy="67.702255"
         r="1.1799999"
         style="font-style:normal;font-variant:normal;font-weight:bold;font-stretch:normal;font-family:'Fira Code';-inkscape-font-specification:'Fira Code Bold';"
         id="path825" />
    </g>
    <rect
       style="fill:#30363b;fill-opacity:1;stroke:#20262b;stroke-width:0.39205828;stroke-miterlimit:4;stroke-dasharray:none;stroke-opacity:1"
       id="rect3721"
       width="54.407944"
       height="12.607942"
       x="60.730652"
       y="71.342285" />
    <g
       aria-label="analyzer"
       style="font-style:normal;font-weight:normal;font-size:10.58333302px;line-height:1.25;font-family:sans-serif;letter-spacing:0px;word-spacing:0px;fill:#ffffff;fill-opacity:1;stroke:none;stroke-width:0.26458332"
       id="text3719">
      <path
         d="m 68.007281,79.143583 q 0,0.3175 0.08467,0.460375 0.08996,0.142875 0.28575,0.216958 l -0.343959,1.100667 q -0.497416,-0.04762 -0.841375,-0.216959 -0.338666,-0.174625 -0.534458,-0.523875 -0.322792,0.386292 -0.8255,0.576792 -0.502708,0.185208 -1.026583,0.185208 -0.867833,0 -1.386417,-0.492125 -0.513291,-0.497416 -0.513291,-1.275291 0,-0.915459 0.714375,-1.412875 0.719666,-0.497417 2.021416,-0.497417 h 0.756708 v -0.211667 q 0,-0.439208 -0.28575,-0.650875 -0.280458,-0.211666 -0.825499,-0.211666 -0.269875,0 -0.693209,0.07937 -0.423333,0.07408 -0.846666,0.216958 l -0.386292,-1.11125 q 0.545042,-0.206375 1.132417,-0.312208 0.592666,-0.105834 1.058333,-0.105834 1.254125,0 1.852083,0.513292 0.60325,0.508 0.60325,1.471083 z m -2.624666,0.60325 q 0.269875,0 0.566208,-0.15875 0.296333,-0.164042 0.449791,-0.460375 v -0.910167 h -0.412749 q -0.6985,0 -1.026584,0.216958 -0.328083,0.211667 -0.328083,0.624417 0,0.322792 0.195792,0.508 0.201083,0.179917 0.555625,0.179917 z"
         style="font-style:normal;font-variant:normal;font-weight:bold;font-stretch:normal;font-family:'Fira Code';-inkscape-font-specification:'Fira Code Bold';fill:#ffffff;stroke-width:0.26458332"
         id="path828" />
      <path
         d="m 69.626515,80.762833 v -5.61975 h 1.4605 l 0.116417,0.650875 q 0.375708,-0.423334 0.79375,-0.629709 0.418041,-0.206375 0.9525,-0.206375 0.719666,0 1.132416,0.439209 0.41275,0.439208 0.41275,1.23825 v 4.1275 h -1.672166 v -3.645959 q 0,-0.343958 -0.04762,-0.545041 -0.04763,-0.206375 -0.169334,-0.291042 -0.116416,-0.08996 -0.322791,-0.08996 -0.174625,0 -0.343959,0.07937 -0.164041,0.07408 -0.322791,0.216958 -0.15875,0.142875 -0.3175,0.343958 v 3.931709 z"
         style="font-style:normal;font-variant:normal;font-weight:bold;font-stretch:normal;font-family:'Fira Code';-inkscape-font-specification:'Fira Code Bold';fill:#ffffff;stroke-width:0.26458332"
         id="path830" />
      <path
         d="m 80.707248,79.143583 q 0,0.3175 0.08467,0.460375 0.08996,0.142875 0.28575,0.216958 l -0.343958,1.100667 q -0.497417,-0.04762 -0.841375,-0.216959 -0.338667,-0.174625 -0.534458,-0.523875 -0.322792,0.386292 -0.8255,0.576792 -0.502709,0.185208 -1.026584,0.185208 -0.867833,0 -1.386416,-0.492125 -0.513292,-0.497416 -0.513292,-1.275291 0,-0.915459 0.714375,-1.412875 0.719667,-0.497417 2.021417,-0.497417 h 0.756708 v -0.211667 q 0,-0.439208 -0.28575,-0.650875 -0.280458,-0.211666 -0.8255,-0.211666 -0.269875,0 -0.693208,0.07937 -0.423334,0.07408 -0.846667,0.216958 l -0.386292,-1.11125 q 0.545042,-0.206375 1.132417,-0.312208 0.592667,-0.105834 1.058333,-0.105834 1.254125,0 1.852084,0.513292 0.603249,0.508 0.603249,1.471083 z m -2.624666,0.60325 q 0.269875,0 0.566208,-0.15875 0.296334,-0.164042 0.449792,-0.460375 v -0.910167 h -0.41275 q -0.6985,0 -1.026583,0.216958 -0.328084,0.211667 -0.328084,0.624417 0,0.322792 0.195792,0.508 0.201083,0.179917 0.555625,0.179917 z"
         style="font-style:normal;font-variant:normal;font-weight:bold;font-stretch:normal;font-family:'Fira Code';-inkscape-font-specification:'Fira Code Bold';fill:#ffffff;stroke-width:0.26458332"
         id="path832" />
      <path
         d="m 85.258066,72.91 v 6.085416 q 0,0.338667 0.1905,0.486833 0.195792,0.142875 0.534458,0.142875 0.216959,0 0.418042,-0.04762 0.201083,-0.05292 0.375708,-0.121708 l 0.402167,1.116542 q -0.28575,0.148166 -0.687917,0.259291 -0.402166,0.111125 -0.936625,0.111125 -1.016,0 -1.49225,-0.582083 -0.47625,-0.587375 -0.47625,-1.571625 V 74.053 H 81.929608 V 72.91 Z"
         style="font-style:normal;font-variant:normal;font-weight:bold;font-stretch:normal;font-family:'Fira Code';-inkscape-font-specification:'Fira Code Bold';fill:#ffffff;stroke-width:0.26458332"
         id="path834" />
      <path
         d="m 93.989299,75.143083 -1.87325,5.61975 q -0.248708,0.746125 -0.661458,1.248833 -0.407458,0.508 -1.021292,0.783167 -0.608541,0.275166 -1.465791,0.322791 l -0.1905,-1.180041 q 0.555625,-0.06879 0.894291,-0.206375 0.343959,-0.137584 0.550334,-0.375709 0.211666,-0.232833 0.365125,-0.592666 h -0.5715 l -1.783292,-5.61975 h 1.767417 l 1.090083,4.550833 1.185333,-4.550833 z"
         style="font-style:normal;font-variant:normal;font-weight:bold;font-stretch:normal;font-family:'Fira Code';-inkscape-font-specification:'Fira Code Bold';fill:#ffffff;stroke-width:0.26458332"
         id="path836" />
      <path
         d="m 97.021408,79.498124 h 2.815166 l -0.15875,1.264709 h -4.630208 v -1.180042 l 2.788708,-3.180292 h -2.555875 v -1.259416 h 4.503208 v 1.17475 z"
         style="font-style:normal;font-variant:normal;font-weight:bold;font-stretch:normal;font-family:'Fira Code';-inkscape-font-specification:'Fira Code Bold';fill:#ffffff;stroke-width:0.26458332"
         id="path838" />
      <path
         d="m 102.82635,78.439791 q 0.0582,0.460375 0.23813,0.746125 0.1852,0.280458 0.47095,0.41275 0.28575,0.127 0.6403,0.127 0.38629,0 0.74612,-0.127 0.35983,-0.127 0.69321,-0.338667 l 0.67204,0.910167 q -0.39687,0.338667 -0.96308,0.555625 -0.56092,0.216958 -1.28059,0.216958 -0.96308,0 -1.61395,-0.381 -0.65088,-0.386291 -0.97896,-1.058333 -0.32809,-0.672042 -0.32809,-1.545167 0,-0.830791 0.3175,-1.508125 0.3175,-0.682625 0.92605,-1.084791 0.61383,-0.407459 1.49754,-0.407459 0.80433,0 1.39171,0.343959 0.59266,0.343958 0.91545,0.989541 0.32809,0.645584 0.32809,1.550459 0,0.142875 -0.0106,0.306916 -0.005,0.164042 -0.0212,0.291042 z m 1.03717,-2.360083 q -0.44979,0 -0.72496,0.322791 -0.27517,0.322792 -0.33338,1.031875 h 2.06375 q -0.005,-0.613833 -0.23812,-0.98425 -0.23283,-0.370416 -0.76729,-0.370416 z"
         style="font-style:normal;font-variant:normal;font-weight:bold;font-stretch:normal;font-family:'Fira Code';-inkscape-font-specification:'Fira Code Bold';fill:#ffffff;stroke-width:0.26458332"
         id="path840" />
      <path
         d="m 107.77933,80.762833 v -1.121834 h 0.74084 v -3.386666 h -0.74084 v -1.11125 h 2.01613 l 0.30692,1.264708 q 0.30162,-0.724958 0.76729,-1.0795 0.47096,-0.354542 1.14829,-0.354542 0.28575,0 0.508,0.04762 0.22225,0.04233 0.41804,0.121709 l -0.508,1.381125 q -0.15346,-0.04233 -0.30692,-0.0635 -0.15345,-0.02117 -0.33866,-0.02117 -0.55034,0 -0.96838,0.449792 -0.41275,0.449791 -0.62971,1.143 v 1.608666 h 1.11125 v 1.121834 z m 3.80471,-3.27025 v -1.640417 l 0.24871,-0.709083 h 1.11125 l -0.31221,2.3495 z"
         style="font-style:normal;font-variant:normal;font-weight:bold;font-stretch:normal;font-family:'Fira Code';-inkscape-font-specification:'Fira Code Bold';fill:#ffffff;stroke-width:0.26458332"
         id="path842" />
    </g>
  </g>
</svg>
