<?xml version="1.0" encoding="UTF-8" standalone="no"?><!DOCTYPE svg PUBLIC "-//W3C//DTD SVG 1.1//EN" "http://www.w3.org/Graphics/SVG/1.1/DTD/svg11.dtd"><svg width="100%" height="100%" viewBox="0 0 32 32" version="1.1" xmlns="http://www.w3.org/2000/svg" xmlns:xlink="http://www.w3.org/1999/xlink" xml:space="preserve" xmlns:serif="http://www.serif.com/" style="fill-rule:evenodd;clip-rule:evenodd;stroke-linecap:round;stroke-linejoin:round;">
<defs>
  <style type="text/css"><![CDATA[
    #logo {
      fill-rule: nonzero;
    }
    #logo-teeth {
      stroke: #000000;
      stroke-width: 0.92px;
    }
    @media (prefers-color-scheme: dark) {
      #logo {
        fill: #FFFFFF;
        fill-rule: nonzero;
      }
      #logo-teeth {
        fill: #FFFFFF;
        stroke: #FFFFFF;
        stroke-width: 0.92px;
      }
    }
  ]]></style>
</defs>
<path id="logo" d="M15.993,1.54c-7.972,0 -14.461,6.492 -14.461,14.462c0,7.969 6.492,14.461 14.461,14.461c7.97,0 14.462,-6.492 14.462,-14.461c0,-7.97 -6.492,-14.462 -14.462,-14.462Zm-0.021,1.285c0.511,0.013 0.924,0.439 0.924,0.951c0,0.522 -0.43,0.952 -0.952,0.952c-0.522,0 -0.951,-0.43 -0.951,-0.952c0,0 0,0 0,0c0,-0.522 0.429,-0.952 0.951,-0.952c0.01,0 0.019,0.001 0.028,0.001Zm2.178,1.566c3.379,0.633 6.313,2.723 8.016,5.709l-1.123,2.533c-0.193,0.438 0.006,0.952 0.44,1.147l2.16,0.958c0.067,0.675 0.076,1.355 0.025,2.031l-1.202,0c-0.12,0 -0.169,0.08 -0.169,0.196l0,0.551c0,1.297 -0.731,1.582 -1.373,1.652c-0.612,0.07 -1.288,-0.257 -1.374,-0.63c-0.361,-2.029 -0.961,-2.46 -1.909,-3.21c1.178,-0.746 2.401,-1.85 2.401,-3.325c0,-1.594 -1.092,-2.597 -1.835,-3.09c-1.046,-0.688 -2.203,-0.826 -2.515,-0.826l-12.421,0c1.717,-1.918 4.02,-3.218 6.55,-3.696l1.466,1.536c0.33,0.346 0.878,0.361 1.223,0.028l1.64,-1.564Zm-13.522,7.043c0.511,0.015 0.924,0.44 0.924,0.951c0,0.522 -0.43,0.952 -0.952,0.952c-0.522,0 -0.951,-0.43 -0.951,-0.952c0,0 0,0 0,0c0,-0.522 0.429,-0.951 0.951,-0.951c0.009,0 0.019,0 0.028,0Zm22.685,0.043c0.511,0.015 0.924,0.44 0.924,0.951c0,0.522 -0.43,0.952 -0.952,0.952c-0.522,0 -0.951,-0.43 -0.951,-0.952c0,0 0,0 0,0c0,-0.522 0.429,-0.952 0.951,-0.952c0.01,0 0.019,0 0.028,0.001Zm-20.892,0.153l1.658,0l0,7.477l-3.347,0c-0.414,-1.452 -0.542,-2.97 -0.38,-4.47l2.05,-0.912c0.438,-0.195 0.637,-0.706 0.441,-1.144l-0.422,-0.951Zm6.92,0.079l3.949,0c0.205,0 1.441,0.236 1.441,1.163c0,0.768 -0.948,1.043 -1.728,1.043l-3.665,0l0.003,-2.206Zm0,5.373l3.026,0c0.275,0 1.477,0.079 1.86,1.615c0.119,0.471 0.385,2.007 0.566,2.499c0.18,0.551 0.911,1.652 1.691,1.652l4.938,0c-0.331,0.444 -0.693,0.863 -1.083,1.255l-2.01,-0.432c-0.468,-0.101 -0.93,0.199 -1.031,0.667l-0.477,2.228c-3.104,1.406 -6.672,1.389 -9.762,-0.046l-0.478,-2.228c-0.101,-0.468 -0.56,-0.767 -1.028,-0.667l-1.967,0.423c-0.365,-0.377 -0.704,-0.778 -1.016,-1.2l9.567,0c0.107,0 0.181,-0.018 0.181,-0.119l0,-3.384c0,-0.097 -0.074,-0.119 -0.181,-0.119l-2.799,0l0.003,-2.144Zm-4.415,7.749c0.512,0.015 0.924,0.44 0.924,0.951c0,0.522 -0.429,0.952 -0.951,0.952c-0.522,0 -0.952,-0.43 -0.952,-0.952c0,0 0,0 0,0c0,-0.522 0.43,-0.952 0.952,-0.952c0.009,0 0.018,0.001 0.027,0.001Zm14.089,0.043c0.511,0.015 0.924,0.439 0.923,0.951c0,0.522 -0.429,0.952 -0.951,0.952c-0.522,0 -0.951,-0.43 -0.951,-0.952c0,0 0,0 0,0c0,-0.522 0.429,-0.952 0.951,-0.952c0.009,0 0.018,0 0.028,0.001Z"/><path id="logo-teeth" d="M29.647,16.002c0,7.49 -6.163,13.653 -13.654,13.653c-7.49,0 -13.654,-6.163 -13.654,-13.653c0,-7.491 6.164,-13.654 13.654,-13.654c7.491,0 13.654,6.163 13.654,13.654Zm-0.257,-1.319l2.13,1.319l-2.13,1.318l1.83,1.71l-2.344,0.878l1.463,2.035l-2.475,0.404l1.04,2.282l-2.506,-0.089l0.575,2.442l-2.441,-0.576l0.089,2.506l-2.283,-1.04l-0.403,2.475l-2.035,-1.462l-0.878,2.343l-1.71,-1.829l-1.319,2.129l-1.318,-2.129l-1.71,1.829l-0.878,-2.343l-2.035,1.462l-0.404,-2.475l-2.282,1.04l0.089,-2.506l-2.442,0.576l0.575,-2.442l-2.505,0.089l1.04,-2.282l-2.475,-0.404l1.462,-2.035l-2.343,-0.878l1.829,-1.71l-2.129,-1.318l2.129,-1.319l-1.829,-1.71l2.343,-0.878l-1.462,-2.035l2.475,-0.404l-1.04,-2.282l2.505,0.089l-0.575,-2.441l2.442,0.575l-0.089,-2.506l2.282,1.04l0.404,-2.475l2.035,1.463l0.878,-2.344l1.71,1.83l1.318,-2.13l1.319,2.13l1.71,-1.83l0.878,2.344l2.035,-1.463l0.403,2.475l2.283,-1.04l-0.089,2.506l2.441,-0.575l-0.575,2.441l2.506,-0.089l-1.04,2.282l2.475,0.404l-1.463,2.035l2.344,0.878l-1.83,1.71Z"/></svg>
