<svg xmlns="http://www.w3.org/2000/svg" xmlns:xlink="http://www.w3.org/1999/xlink" id="Capa_1" width="27.434" height="29.5" enable-background="new 0 0 27.434 29.5" version="1.1" viewBox="0 0 27.434 29.5" xml:space="preserve"><g><path d="M27.315,18.389c-0.165-0.604-0.509-1.113-0.981-1.459c-0.042-0.144-0.083-0.429-0.015-0.761l0.037-0.177v-0.182V14.8 c0-1.247-0.006-1.277-0.048-1.472c-0.076-0.354-0.035-0.653,0.007-0.803c0.477-0.346,0.828-0.861,0.996-1.476 c0.261-0.956,0.076-2.091-0.508-3.114l-0.591-1.032c-0.746-1.307-1.965-2.119-3.182-2.119c-0.378,0-0.75,0.081-1.085,0.235 c-0.198-0.025-0.554-0.15-0.855-0.389l-0.103-0.082l-0.114-0.065l-1.857-1.067L18.92,3.36l-0.105-0.044 c-0.376-0.154-0.658-0.41-0.768-0.556C17.918,1.172,16.349,0,14.296,0H13.14c-2.043,0-3.608,1.154-3.749,2.721 C9.277,2.862,8.999,3.104,8.633,3.25l-0.1,0.039L8.439,3.341L6.495,4.406L6.363,4.479L6.245,4.573 C5.936,4.82,5.596,4.944,5.416,4.977c-0.314-0.139-0.66-0.21-1.011-0.21c-1.198,0-2.411,0.819-3.165,2.139L0.65,7.938 c-0.412,0.72-0.642,1.521-0.644,2.258c-0.003,0.952,0.362,1.756,1.013,2.256c0.034,0.155,0.061,0.448-0.016,0.786 c-0.038,0.168-0.062,0.28-0.062,1.563c0,1.148,0,1.148,0.015,1.262l0.009,0.073l0.017,0.073c0.073,0.346,0.045,0.643,0.011,0.802 C0.348,17.512-0.01,18.314,0,19.268c0.008,0.729,0.238,1.523,0.648,2.242l0.589,1.031c0.761,1.331,1.967,2.159,3.15,2.159 c0.324,0,0.645-0.064,0.938-0.187c0.167,0.038,0.492,0.156,0.813,0.416l0.11,0.088l0.124,0.07l2.045,1.156l0.102,0.057l0.107,0.043 c0.364,0.147,0.646,0.381,0.766,0.521c0.164,1.52,1.719,2.634,3.745,2.634h1.155c2.037,0,3.598-1.134,3.747-2.675 c0.117-0.145,0.401-0.393,0.774-0.549l0.111-0.047l0.105-0.062l1.96-1.159l0.105-0.062l0.097-0.075 c0.309-0.246,0.651-0.371,0.832-0.402c0.313,0.138,0.662,0.212,1.016,0.212c1.199,0,2.412-0.82,3.166-2.139l0.59-1.032 C27.387,20.48,27.575,19.342,27.315,18.389z M25.274,20.635l-0.59,1.032c-0.438,0.765-1.104,1.251-1.639,1.251 c-0.133,0-0.258-0.029-0.369-0.094c-0.15-0.086-0.346-0.127-0.566-0.127c-0.596,0-1.383,0.295-2.01,0.796l-1.96,1.157 c-1.016,0.425-1.846,1.291-1.846,1.929s-0.898,1.159-1.998,1.159H13.14c-1.1,0-1.998-0.514-1.998-1.141s-0.834-1.477-1.854-1.888 l-2.046-1.157c-0.636-0.511-1.425-0.814-2.006-0.814c-0.202,0-0.379,0.037-0.516,0.115c-0.101,0.057-0.214,0.084-0.333,0.084 c-0.518,0-1.179-0.498-1.62-1.271l-0.591-1.032c-0.545-0.954-0.556-1.983-0.024-2.286c0.532-0.305,0.78-1.432,0.551-2.506 c0,0,0-0.003,0-1.042c0-1.088,0.021-1.18,0.021-1.18c0.238-1.072-0.01-2.203-0.552-2.513C1.631,10.8,1.634,9.765,2.18,8.812 L2.769,7.78c0.438-0.766,1.103-1.251,1.636-1.251c0.131,0,0.255,0.029,0.365,0.092C4.92,6.707,5.114,6.747,5.334,6.747 c0.596,0,1.38-0.296,2.007-0.795l1.944-1.065c1.021-0.407,1.856-1.277,1.856-1.933c0-0.656,0.898-1.192,1.998-1.192h1.156V1.761 c1.1,0,1.998,0.545,1.998,1.211c0,0.667,0.832,1.554,1.849,1.973L20,6.013c0.618,0.489,1.401,0.775,2.012,0.775 c0.24,0,0.454-0.045,0.62-0.139c0.122-0.069,0.259-0.102,0.403-0.102c0.551,0,1.221,0.476,1.653,1.231l0.59,1.032 c0.544,0.953,0.518,2.004-0.062,2.334c-0.577,0.331-0.859,1.48-0.627,2.554c0,0,0.01,0.042,0.01,1.103c0,1.012,0,1.012,0,1.012 c-0.218,1.049,0.068,2.174,0.636,2.498C25.802,18.635,25.819,19.68,25.274,20.635z"/><path d="M13.61,7.611c-3.913,0-7.084,3.173-7.084,7.085c0,3.914,3.171,7.085,7.084,7.085s7.085-3.172,7.085-7.085 C20.695,10.784,17.523,7.611,13.61,7.611z M13.61,20.02c-2.936,0-5.323-2.388-5.323-5.323c0-2.935,2.388-5.323,5.323-5.323 s5.324,2.388,5.324,5.323C18.934,17.632,16.546,20.02,13.61,20.02z"/><path d="M13.682,9.908c-2.602,0-4.718,2.116-4.718,4.718c0,2.601,2.116,4.716,4.718,4.716c2.601,0,4.717-2.115,4.717-4.716 C18.399,12.024,16.283,9.908,13.682,9.908z M13.682,17.581c-1.633,0-2.956-1.323-2.956-2.955s1.323-2.956,2.956-2.956 c1.632,0,2.956,1.324,2.956,2.956S15.314,17.581,13.682,17.581z"/></g></svg>